<svg xmlns="http://www.w3.org/2000/svg" width="48" height="48" viewBox="0 0 48 48">
  <g id="그룹_31703" data-name="그룹 31703" transform="translate(-936 -366)">
    <rect id="사각형_4224" data-name="사각형 4224" width="48" height="48" rx="24" transform="translate(936 366)" fill="#393a3f"/>
    <path id="패스_92" data-name="패스 92" d="M20.448,34.08a2.259,2.259,0,0,1-1.584-.672L9.888,24.432a.928.928,0,0,1,0-1.344l1.776-1.776a.928.928,0,0,1,1.344,0l7.44,7.392L34.992,14.16a.928.928,0,0,1,1.344,0l1.776,1.776a.928.928,0,0,1,0,1.344L21.984,33.408A2.15,2.15,0,0,1,20.448,34.08Z" transform="translate(936 366)" fill="#fff"/>
  </g>
</svg>
